<svg width="25" height="25" viewBox="0 0 25 25" fill="none" xmlns="http://www.w3.org/2000/svg">
<circle cx="12.5" cy="12.5" r="12.5" fill="#D72B81"/>
<g clip-path="url(#clip0_2447_851)">
<path d="M18.2808 8.01171C18.0837 7.9296 17.8666 7.90802 17.6572 7.94971C17.4478 7.9914 17.2555 8.09449 17.1049 8.24583L15.7099 9.64081L13.236 7.16695C13.0337 6.9647 12.7593 6.85107 12.4732 6.85107C12.1872 6.85107 11.9128 6.9647 11.7105 7.16695L9.23662 9.64081L7.84164 8.24583C7.69076 8.09499 7.49854 7.99228 7.28929 7.95067C7.08004 7.90906 6.86315 7.93042 6.66604 8.01206C6.46893 8.0937 6.30045 8.23194 6.1819 8.40932C6.06335 8.5867 6.00005 8.79524 6 9.00859V14.7191C6.00086 15.4341 6.2853 16.1197 6.79093 16.6253C7.29657 17.131 7.98211 17.4154 8.69719 17.4163H16.2493C16.9644 17.4154 17.6499 17.131 18.1556 16.6253C18.6612 16.1197 18.9456 15.4341 18.9465 14.7191V9.00859C18.9465 8.79523 18.8833 8.58664 18.7648 8.4092C18.6464 8.23176 18.4779 8.09343 18.2808 8.01171Z" fill="white"/>
</g>
<defs>
<clipPath id="clip0_2447_851">
<rect width="12.9465" height="12.9465" fill="white" transform="translate(6 5.54858)"/>
</clipPath>
</defs>
</svg>
